<?xml version="1.0" standalone="no"?>
<!DOCTYPE svg PUBLIC "-//W3C//DTD SVG 20010904//EN"
 "http://www.w3.org/TR/2001/REC-SVG-20010904/DTD/svg10.dtd">
<svg version="1.0" xmlns="http://www.w3.org/2000/svg"
 width="489.000000pt" height="489.000000pt" viewBox="0 0 489.000000 489.000000"
 preserveAspectRatio="xMidYMid meet">
<metadata>
Created by potrace 1.14, written by Peter Selinger 2001-2017
</metadata>
<g transform="translate(0.000000,489.000000) scale(0.100000,-0.100000)"
fill="#000000" stroke="none">
<path d="M0 4057 l0 -833 323 -161 c241 -121 345 -179 413 -230 114 -86 171
-133 160 -133 -5 0 -68 31 -140 68 -72 38 -212 101 -311 141 -180 73 -357 150
-407 177 -14 8 -29 14 -32 14 -3 0 -6 -44 -6 -98 l0 -99 93 -50 c406 -220 361
-190 587 -399 114 -105 217 -195 229 -199 12 -4 102 -5 199 -4 97 2 220 0 273
-5 102 -9 126 -2 97 32 -22 26 -33 46 -20 38 6 -3 13 -2 16 3 4 6 18 6 36 1
17 -5 33 -8 37 -8 8 1 18 -17 27 -45 7 -22 9 -22 126 -35 62 -7 133 -8 205 -2
113 10 209 2 315 -25 67 -17 390 -32 375 -18 -5 6 -34 18 -62 29 -29 10 -53
21 -53 25 0 10 132 20 181 13 120 -17 319 -82 319 -104 0 -4 -7 -13 -15 -20
-22 -18 -19 -27 15 -38 40 -14 45 -1 20 48 l-20 40 62 0 c35 0 81 -5 102 -11
35 -10 41 -9 55 9 24 29 45 32 80 11 27 -16 30 -22 21 -38 -13 -26 -13 -31 3
-31 7 0 53 41 102 91 73 74 133 119 320 243 127 84 302 193 390 241 88 48 214
118 280 155 180 101 249 134 378 181 l117 43 0 908 0 908 -2445 0 -2445 0 0
-833z m2740 508 c61 -22 177 -33 245 -24 87 11 185 10 226 -1 20 -6 107 -57
194 -115 87 -58 162 -105 166 -105 15 0 59 -75 59 -100 0 -53 53 -204 82 -234
16 -17 46 -55 66 -85 20 -31 48 -72 63 -91 29 -38 49 -137 49 -245 0 -66 -7
-85 -31 -85 -19 0 -20 -14 -4 -67 2 -6 -2 -47 -9 -90 -12 -77 -16 -84 -127
-249 -62 -93 -130 -187 -149 -209 -20 -22 -44 -51 -53 -64 -16 -24 -57 -40
-57 -22 0 19 54 136 71 156 33 37 68 295 41 295 -4 0 -28 -20 -52 -45 -24 -25
-47 -45 -51 -45 -9 0 3 48 30 124 28 79 27 112 -10 209 -32 83 -54 110 -174
216 -61 55 -138 72 -152 35 -3 -8 -9 -11 -15 -8 -5 3 -16 -2 -24 -12 -21 -28
-47 -77 -36 -71 5 4 9 -1 9 -9 0 -8 -6 -13 -14 -10 -10 4 -10 1 0 -17 6 -12
19 -31 27 -41 14 -18 14 -18 -10 -6 -22 12 -24 11 -13 -2 7 -8 9 -19 5 -23 -4
-5 -2 -6 3 -2 6 3 15 -6 22 -19 6 -13 8 -22 3 -19 -4 3 -10 -2 -13 -10 -4 -10
-1 -12 10 -8 11 4 14 3 9 -6 -7 -11 -14 -39 -20 -86 -1 -11 -8 -30 -15 -43 -6
-12 -9 -27 -6 -33 4 -5 2 -16 -5 -24 -6 -7 -14 -31 -16 -52 -8 -59 -10 -67
-21 -88 -6 -11 -8 -26 -6 -32 3 -7 -3 -23 -11 -35 -22 -32 -20 -57 12 -120 24
-48 26 -60 18 -102 -8 -47 -8 -47 -90 -86 -44 -21 -102 -46 -129 -55 -26 -9
-54 -23 -62 -32 -8 -8 -15 -11 -15 -7 0 3 -7 1 -15 -6 -8 -7 -15 -9 -15 -4 -1
5 -10 -2 -20 -15 -11 -13 -20 -20 -20 -16 0 4 -6 2 -13 -4 -8 -6 -17 -8 -20
-4 -4 3 -7 2 -7 -4 0 -6 -13 -16 -29 -21 -25 -9 -39 -5 -93 22 -153 78 -347
197 -368 226 -39 55 -43 138 -10 224 5 15 7 26 4 26 -17 0 48 87 103 136 68
62 85 70 104 48 6 -8 16 -14 21 -14 5 0 21 -9 36 -20 35 -25 182 -67 264 -75
58 -6 62 -5 44 9 -21 17 -199 89 -251 102 -16 4 -47 20 -69 36 -21 15 -45 28
-53 28 -23 0 -14 18 12 24 14 4 23 11 20 16 -3 5 3 18 13 28 10 10 18 28 17
40 -1 15 2 19 10 12 7 -6 11 -3 13 11 4 41 6 48 12 44 4 -2 12 7 19 21 6 14 8
23 3 20 -4 -2 -8 4 -8 14 0 15 3 17 15 7 10 -9 9 -2 -4 23 -16 32 -17 34 -1
21 16 -13 16 -12 5 12 -7 15 -16 27 -21 27 -5 0 -6 4 -3 10 4 6 -1 7 -11 3
-12 -4 -15 -3 -10 5 4 7 -3 14 -19 18 -14 3 -25 10 -25 15 0 5 -16 6 -34 3
-21 -3 -47 1 -63 9 -32 15 -110 12 -132 -6 -8 -7 -38 -42 -68 -80 -78 -97 -80
-98 -231 -102 -136 -3 -145 -6 -217 -60 -22 -17 -52 -38 -67 -48 -15 -9 -36
-38 -48 -63 -34 -77 -34 -42 -1 74 31 107 41 224 22 236 -5 3 -53 -41 -108
-97 -87 -92 -105 -117 -156 -220 -31 -65 -62 -117 -67 -117 -13 0 -14 -5 16
137 23 110 32 135 77 206 28 45 69 123 92 174 46 102 109 176 368 431 146 144
207 189 304 225 37 14 118 44 178 67 231 87 314 110 382 105 34 -3 80 -12 103
-20z m471 -1666 c39 -31 107 -119 92 -119 -10 0 -143 132 -143 142 0 14 11 9
51 -23z"/>
<path d="M4730 2957 c-186 -64 -195 -69 -419 -209 -242 -153 -319 -205 -371
-254 -101 -95 -289 -236 -384 -288 -158 -88 -211 -121 -211 -135 0 -7 25 -24
55 -39 30 -15 56 -32 58 -38 4 -15 -90 -38 -117 -29 -12 3 -21 3 -21 -2 0 -5
41 -26 91 -47 91 -38 92 -38 127 -21 20 9 59 31 86 50 52 33 168 105 401 247
72 44 229 142 350 218 121 77 286 172 368 212 l147 73 0 157 c0 87 -1 158 -3
158 -1 0 -72 -24 -157 -53z"/>
<path d="M330 2512 c0 -4 -29 -7 -64 -7 -36 0 -62 -3 -60 -7 2 -3 -8 -5 -23
-4 -16 2 -34 -1 -40 -6 -7 -6 -13 -7 -13 -3 0 4 -8 1 -17 -6 -15 -12 -16 -12
-8 1 7 12 6 13 -6 4 -8 -6 -30 -10 -49 -10 -19 1 -38 -3 -42 -9 -4 -5 -8 -288
-8 -629 l0 -619 43 7 c23 3 76 9 117 12 126 10 397 74 412 98 13 19 9 23 -17
18 -39 -7 -32 28 30 148 30 57 52 106 50 108 -2 2 -25 -3 -51 -12 -73 -25 -78
-23 -70 27 6 36 19 55 89 125 l82 82 -133 -6 c-126 -7 -132 -6 -132 12 0 10 8
29 18 41 18 23 224 133 249 133 35 0 1 26 -51 38 -32 8 -60 21 -63 29 -7 19
33 60 66 68 34 8 97 107 83 131 -17 30 -165 142 -211 160 -25 9 -65 28 -88 41
-54 30 -93 45 -93 35z"/>
<path d="M4865 2080 c4 -6 -7 -23 -24 -39 -17 -16 -31 -24 -31 -18 0 7 -4 6
-9 -3 -6 -8 -7 -18 -4 -24 3 -5 1 -6 -5 -2 -7 4 -12 2 -12 -5 0 -7 -3 -10 -6
-6 -3 3 -19 -6 -35 -20 -21 -19 -26 -30 -18 -39 7 -8 6 -14 -2 -20 -7 -4 -9
-3 -6 3 4 6 0 14 -9 17 -9 4 -12 2 -8 -5 10 -17 -17 -61 -34 -54 -12 4 -13 3
-2 -10 10 -12 8 -16 -14 -25 -14 -5 -26 -15 -26 -22 0 -9 3 -9 11 2 9 13 10
13 6 0 -2 -8 -8 -15 -13 -15 -15 0 -34 -15 -34 -27 0 -7 6 -6 15 2 11 9 15 9
15 1 0 -7 5 -9 13 -5 7 4 9 3 4 -2 -5 -5 -13 -9 -18 -9 -5 0 -21 -18 -35 -40
-20 -31 -24 -35 -20 -15 5 23 4 24 -9 6 -13 -18 -14 -17 -21 9 -5 20 -9 23
-15 13 -7 -10 -9 -10 -9 0 0 7 -5 10 -11 6 -8 -4 -9 1 -5 17 l7 24 -16 -25
c-16 -24 -16 -24 -12 -2 3 12 1 20 -4 16 -5 -3 -9 0 -9 6 0 6 -4 8 -10 5 -5
-3 -10 0 -10 7 0 9 -3 9 -10 -2 -8 -12 -10 -12 -10 5 -1 18 -2 17 -16 -5 -15
-25 -15 -25 -8 -1 4 16 3 21 -5 17 -6 -4 -11 -2 -11 5 0 7 -7 4 -15 -7 -9 -12
-14 -14 -15 -6 0 7 -4 10 -10 7 -5 -3 -10 -1 -10 4 0 6 -8 3 -18 -6 -13 -13
-16 -22 -9 -31 13 -17 7 -22 -39 -27 -21 -3 -42 -11 -46 -18 -6 -9 -8 -9 -8 1
0 8 -5 10 -12 5 -19 -11 -38 -12 -38 -2 0 6 -4 7 -10 4 -5 -3 -10 -2 -10 3 0
20 -153 -29 -235 -75 -46 -26 -85 -65 -83 -82 4 -25 93 -104 200 -178 55 -37
129 -90 166 -117 65 -47 268 -152 286 -147 4 1 14 -4 22 -10 13 -11 46 -18 99
-21 11 -1 26 -6 33 -12 10 -7 17 -5 24 7 7 14 13 15 30 6 15 -8 19 -8 14 0
-10 15 7 14 23 -1 10 -11 11 -9 5 6 -6 15 -4 17 6 11 10 -6 12 -4 7 9 -6 14
-4 15 16 5 21 -12 21 -11 7 6 -14 17 -13 18 3 12 15 -6 16 -4 7 13 -5 10 -14
22 -20 25 -5 3 -8 11 -6 18 1 7 1 9 -1 5 -3 -5 -9 -8 -14 -8 -6 0 -8 4 -5 8 3
5 -6 25 -20 45 -14 20 -21 37 -17 37 5 0 9 9 9 19 0 16 -3 18 -15 8 -12 -10
-13 -9 -3 10 9 15 9 30 2 48 -5 14 -7 24 -2 22 4 -3 7 5 7 18 0 13 -3 21 -7
18 -5 -2 -4 7 1 20 6 14 7 28 4 31 -3 3 0 12 7 21 10 12 16 13 28 3 13 -11 14
-11 8 0 -7 11 -4 12 13 3 11 -7 21 -9 21 -6 0 3 10 1 21 -6 17 -9 20 -8 13 2
-4 7 10 2 31 -11 21 -13 35 -19 31 -12 -5 8 -2 10 8 6 9 -3 13 -11 9 -17 -3
-6 -1 -7 5 -3 9 5 12 92 12 311 0 264 -2 304 -16 309 -9 3 -12 2 -9 -4z m-253
-362 c-18 -18 -14 -32 5 -17 15 13 15 12 5 -6 -6 -11 -16 -27 -22 -35 -9 -12
-10 -10 -5 9 5 16 4 21 -4 17 -6 -4 -11 -4 -11 0 0 9 31 44 39 44 3 0 0 -5 -7
-12z m8 -68 c-6 -11 -13 -20 -16 -20 -2 0 0 9 6 20 6 11 13 20 16 20 2 0 0 -9
-6 -20z"/>
<path d="M912 1147 c-22 -12 -21 -14 28 -29 40 -13 50 -14 50 -3 0 44 -32 57
-78 32z"/>
<path d="M714 1097 c-129 -89 -160 -130 -170 -223 l-6 -59 49 50 c27 28 67 73
88 100 22 28 57 70 77 94 34 40 50 81 31 81 -5 0 -35 -19 -69 -43z"/>
<path d="M1730 811 c0 -11 61 -61 75 -61 11 0 -14 28 -47 51 -15 11 -28 16
-28 10z"/>
<path d="M635 135 c-99 -40 -216 -87 -260 -103 l-80 -31 236 0 236 -1 37 55
c29 45 36 64 36 105 0 34 -4 50 -12 49 -7 0 -94 -34 -193 -74z"/>
</g>
</svg>
